<?xml version="1.0" encoding="utf-8"?>
<!-- Generator: Adobe Illustrator 25.2.0, SVG Export Plug-In . SVG Version: 6.00 Build 0)  -->
<svg version="1.1" id="Layer_1" xmlns="http://www.w3.org/2000/svg" xmlns:xlink="http://www.w3.org/1999/xlink" x="0px" y="0px"
	 viewBox="0 0 500 500" style="enable-background:new 0 0 500 500;" xml:space="preserve">
<style type="text/css">
	.st0{fill:#FB063A;}
</style>
<g>
	<g>
		<g>
			<path class="st0" d="M229.6,346.8c0-0.6,0.1-1.1,0.1-1.7c0-27.7,0-55.3,0-83c0-0.6,0-1.1,0-1.9c-9.4,0-18.6,0-28,0
				c0-11.5,0-22.9,0-34.4c9.2,0,18.5,0,28,0c0-0.9,0-1.6,0-2.4c0.1-10.1-0.2-20.2,0.3-30.2c0.6-12,4.7-22.7,14.2-30.7
				c7.4-6.3,16.3-9.1,25.8-9.2c9.1-0.1,18.1,0.7,27.2,1.1c0.4,0,0.7,0.2,1.2,0.3c0,10.2,0,20.3,0,30.7c-0.8,0-1.5,0-2.2,0
				c-6.6,0.1-13.2-0.1-19.8,0.4c-7.1,0.5-11.2,4.3-11.7,11.3c-0.6,9.5-0.1,19-0.1,28.7c10.2,0,20.5,0,31,0
				c-1.4,11.6-2.9,22.9-4.3,34.4c-9,0-17.8,0-26.8,0c-0.1,0.8-0.1,1.4-0.1,2c0,27.7,0,55.3,0,83c0,0.6,0.1,1.1,0.2,1.7
				C252.7,346.8,241.2,346.8,229.6,346.8z"/>
		</g>
	</g>
	<g>
		<path class="st0" d="M250,485.1c-129.6,0-235-105.4-235-235C15,120.4,120.4,15,250,15s235,105.4,235,235S379.6,485.1,250,485.1z
			 M250,33.7c-119.3,0-216.3,97-216.3,216.3s97,216.3,216.3,216.3s216.3-97,216.3-216.3S369.3,33.7,250,33.7z"/>
	</g>
</g>
</svg>
