<?xml version="1.0" encoding="utf-8"?>
<!-- Generator: Adobe Illustrator 25.2.0, SVG Export Plug-In . SVG Version: 6.00 Build 0)  -->
<svg version="1.1" id="Layer_1" xmlns="http://www.w3.org/2000/svg" xmlns:xlink="http://www.w3.org/1999/xlink" x="0px" y="0px"
	 viewBox="0 0 500 500" style="enable-background:new 0 0 500 500;" xml:space="preserve">
<style type="text/css">
	.st0{fill:#FB063A;}
</style>
<g>
	<g>
		<path class="st0" d="M250,484.9C120.5,484.9,15.1,379.5,15.1,250S120.5,15.1,250,15.1S484.9,120.5,484.9,250
			S379.5,484.9,250,484.9z M250,33.8c-119.2,0-216.2,97-216.2,216.2s97,216.2,216.2,216.2s216.2-97,216.2-216.2S369.2,33.8,250,33.8
			z"/>
	</g>
</g>
<g>
	<path class="st0" d="M135.3,297.5c0-31.6,0-63.3,0-94.9c0.3-2.1,0.6-4.2,0.9-6.4c2.9-18.2,11.5-33.1,25.6-44.7
		c13.6-11.1,29.3-16.1,46.8-16.1c27.1,0.1,54.2,0,81.3,0.1c4.7,0,9.4,0.3,14,0.9c15.6,2.3,29.1,9.3,40.1,20.5
		c14,14.4,20.6,31.8,20.6,51.8c0,27.6,0,55.2,0,82.8c0,11.9-2.3,23.3-7.8,33.9c-9.7,18.6-24.7,31-44.9,36.6
		c-4.7,1.3-9.6,1.8-14.5,2.7c-31.7,0-63.3,0-95,0c-0.4-0.1-0.7-0.3-1.1-0.3c-12.1-0.9-23.2-4.6-33.3-11.2
		c-15.1-9.9-25.3-23.6-30.1-41C136.7,307.3,136.2,302.4,135.3,297.5z M156.8,250c0,14-0.1,27.9,0.1,41.9c0,3.9,0.3,7.8,1.1,11.5
		c5.5,24,25.3,39.7,49.9,39.7c28.1,0,56.1,0.1,84.2,0c3.8,0,7.7-0.3,11.3-1.1c24-5.5,39.7-25.3,39.7-49.9c0-28.1,0.1-56.1,0-84.2
		c0-3.8-0.3-7.7-1.1-11.3c-5.4-23.8-25.2-39.6-49.4-39.7c-28.4-0.1-56.7,0-85.1,0c-7.2,0-14.3,1.2-20.8,4.4
		c-19.4,9.4-29.4,25.1-29.7,46.6C156.6,221.9,156.8,236,156.8,250z"/>
	<path class="st0" d="M192.7,250c0-31.6,25.9-57.4,57.4-57.3c31.6,0.1,57.2,25.8,57.2,57.3c0,31.6-25.9,57.4-57.4,57.3
		C218.3,307.2,192.7,281.5,192.7,250z M285.8,250.1c0.1-19.6-15.9-35.8-35.6-35.9c-19.7-0.1-36,16-36.1,35.7
		c-0.1,19.6,15.9,35.8,35.6,35.9C269.5,286,285.7,269.9,285.8,250.1z"/>
	<path class="st0" d="M311.6,196c-4.2,0-7.5-3.3-7.6-7.5c0-4.2,3.4-7.7,7.6-7.7c4.2,0,7.7,3.6,7.6,7.8
		C319.2,192.7,315.8,196,311.6,196z"/>
</g>
</svg>
