<?xml version="1.0" encoding="utf-8"?>
<!-- Generator: Adobe Illustrator 25.2.0, SVG Export Plug-In . SVG Version: 6.00 Build 0)  -->
<svg version="1.1" id="Layer_1" xmlns="http://www.w3.org/2000/svg" xmlns:xlink="http://www.w3.org/1999/xlink" x="0px" y="0px"
	 viewBox="0 0 500 500" style="enable-background:new 0 0 500 500;" xml:space="preserve">
<style type="text/css">
	.st0{fill:#FB063A;}
</style>
<g>
	<g>
		<g>
			<path class="st0" d="M147.1,315c23,2.1,43.4-3.5,62.1-17.5c-12.7-0.7-23-5.6-31-14.7c-3.7-4.2-6.5-9-8.3-14.7
				c6.2,0.8,12.2,0.9,18.5-0.8c-25.4-6.5-34.2-29.1-33.1-41.9c5.7,2.9,11.6,4.8,18.7,5c-10.6-7.7-16.7-17.6-18.3-30
				c-1.2-9.2,0.7-18,5.4-26.3c22.9,26.9,51.8,41.8,86.9,44.2c-0.2-4.3-0.5-8.3-0.4-12.3c0.5-17.3,13.8-33.9,30.6-38.1
				c15.7-4,29.5-0.5,41.3,10.7c0.9,0.9,1.7,1,2.9,0.7c8.2-1.8,16-4.7,23.3-8.8c0.5-0.3,1-0.5,1.7-0.9c-1.4,5-3.6,9.2-6.8,12.9
				c-3.2,3.6-6.8,6.8-10.3,10.3c3.8-0.8,7.7-1.5,11.5-2.5c3.7-1,7.4-2.4,11.4-3.3c-3.4,4-6.6,8.1-10.3,11.9c-2.9,3-6.4,5.5-9.5,8.4
				c-0.6,0.6-1.1,1.6-1.1,2.5c0,43.6-17.2,78.7-52.7,104.2c-15,10.8-32.2,16.6-50.6,19c-17.3,2.2-34.3,1.1-51.1-3.7
				c-10.5-3-20.4-7.5-29.7-13.3C147.8,315.6,147.6,315.4,147.1,315z"/>
		</g>
	</g>
	<g>
		<path class="st0" d="M250,485C120.4,485,15,379.6,15,250S120.4,15,250,15s235,105.4,235,235S379.6,485,250,485z M250,33.7
			c-119.3,0-216.3,97-216.3,216.3s97,216.3,216.3,216.3s216.3-97,216.3-216.3S369.3,33.7,250,33.7z"/>
	</g>
</g>
</svg>
